<svg width="45" height="45" viewBox="0 0 45 45" fill="none" xmlns="http://www.w3.org/2000/svg">
<g id="wallet (8) 1">
<path id="Wallet" d="M36.5625 12.1876H35.4975L27.3581 4.04822C25.7128 2.40385 23.0367 2.40385 21.3914 4.04822L13.2525 12.1876H8.4375C5.85281 12.1876 3.75 14.2904 3.75 16.8751V37.5001C3.75 40.0848 5.85281 42.1876 8.4375 42.1876H36.5625C39.1472 42.1876 41.25 40.0848 41.25 37.5001V16.8751C41.25 14.2904 39.1472 12.1876 36.5625 12.1876ZM22.4194 12.1876L27.6328 6.97416L28.6509 7.99228L24.4556 12.1876H22.4194ZM29.9766 9.31791L32.8458 12.1876H27.1069L29.9766 9.31791ZM22.7175 5.37432C23.6311 4.46025 25.1189 4.46025 26.0325 5.37432L26.3072 5.649L19.7681 12.1876H15.9042L22.7175 5.37432ZM36.5625 40.3126H8.4375C6.88641 40.3126 5.625 39.0512 5.625 37.5001V16.8751C5.625 15.324 6.88641 14.0626 8.4375 14.0626H36.5625C38.1136 14.0626 39.375 15.324 39.375 16.8751V22.5001H32.8125C30.2278 22.5001 28.125 24.6029 28.125 27.1876C28.125 29.7723 30.2278 31.8751 32.8125 31.8751H39.375V37.5001C39.375 39.0512 38.1136 40.3126 36.5625 40.3126ZM39.375 24.3751V30.0001H32.8125C31.2614 30.0001 30 28.7387 30 27.1876C30 25.6365 31.2614 24.3751 32.8125 24.3751H39.375ZM32.8125 26.2501H34.6875C35.205 26.2501 35.625 26.6701 35.625 27.1876C35.625 27.7051 35.205 28.1251 34.6875 28.1251H32.8125C32.295 28.1251 31.875 27.7051 31.875 27.1876C31.875 26.6701 32.295 26.2501 32.8125 26.2501Z" fill="white"/>
</g>
</svg>
