<svg width="45" height="45" viewBox="0 0 45 45" fill="none" xmlns="http://www.w3.org/2000/svg">
<g id="gift (2) 1" clip-path="url(#clip0_198_2069)">
<g id="Cyber Monday outline 2">
<g id="27_Gift">
<path id="Vector" d="M9.84375 14.7656H11.25V28.125H9.84375V14.7656Z" fill="white"/>
<path id="Vector_2" d="M35.1562 14.7656H36.5625V27.2538H35.1562V14.7656Z" fill="white"/>
<path id="Vector_3" d="M26.0156 26.0156H24.6094V15.4688H21.7969V26.0156H20.3906V14.7656C20.3906 14.5791 20.4647 14.4003 20.5966 14.2684C20.7284 14.1366 20.9073 14.0625 21.0938 14.0625H25.3125C25.499 14.0625 25.6778 14.1366 25.8097 14.2684C25.9415 14.4003 26.0156 14.5791 26.0156 14.7656V26.0156Z" fill="white"/>
<path id="Vector_4" d="M25.134 4.63504C24.9307 4.10059 24.5701 3.64032 24.0999 3.31495C23.6297 2.98959 23.0719 2.81441 22.5001 2.81254C22.0148 2.81066 21.5374 2.9352 21.1149 3.17389C20.6924 3.41258 20.3393 3.75718 20.0905 4.17379L18.8867 3.44535C19.2602 2.82103 19.7897 2.3047 20.4233 1.94717C21.0569 1.58964 21.7726 1.40323 22.5001 1.40629C23.3578 1.40891 24.1946 1.67169 24.8999 2.15991C25.6052 2.64813 26.1458 3.33882 26.4502 4.14074L25.134 4.63504Z" fill="white"/>
<path id="Vector_5" d="M32.4079 8.9508L31.4467 7.92494C31.5114 7.86448 31.5768 7.80119 31.64 7.73721C32.6041 6.81728 33.2963 5.64958 33.6404 4.36221C33.7795 3.95654 33.8126 3.52208 33.7367 3.10002C33.6608 2.67795 33.4783 2.28227 33.2066 1.95049C32.0619 0.803695 29.4118 1.52088 27.4213 3.51565C25.9307 5.00698 25.101 6.93354 25.359 8.31026L23.9774 8.56901C23.6329 6.72752 24.5947 4.35377 26.4264 2.52213C29.0455 -0.096305 32.4613 -0.782555 34.2022 0.956976C34.6485 1.45389 34.9578 2.05834 35.0998 2.71096C35.2418 3.36357 35.2117 4.0419 35.0122 4.67932C34.6084 6.22307 33.7868 7.62562 32.6378 8.73284C32.5618 8.80455 32.4838 8.87908 32.4079 8.9508Z" fill="white"/>
<path id="Vector_6" d="M27.6158 8.83896L26.4043 8.12529C26.8205 7.42634 27.3219 6.7818 27.897 6.20646C29.9839 4.12732 32.6565 3.21115 34.5528 3.92693C34.7128 3.98729 34.8454 4.1039 34.9256 4.25494C35.0059 4.40598 35.0283 4.58109 34.9888 4.74748C34.5803 6.263 33.7696 7.63982 32.6424 8.73209L31.6447 7.74068C32.4077 6.99205 33.0082 6.09425 33.4088 5.10326C32.0841 5.00131 30.2954 5.80217 28.892 7.19998C28.4004 7.69143 27.9718 8.24196 27.6158 8.83896Z" fill="white"/>
<path id="Vector_7" d="M13.3399 8.99429C13.2462 8.90851 13.1548 8.82039 13.0657 8.72992C11.9167 7.6227 11.0951 6.22015 10.6913 4.6764C10.4918 4.03898 10.4617 3.36065 10.6037 2.70804C10.7457 2.05542 11.055 1.45097 11.5013 0.954056C13.2422 -0.786881 16.658 -0.100631 19.2771 2.51921C21.1186 4.35929 22.0777 6.74289 21.7261 8.58788L20.3452 8.3214C20.6074 6.94328 19.7799 5.01109 18.2808 3.51554C16.2889 1.52359 13.6402 0.807103 12.4941 1.95038C12.2224 2.28217 12.0399 2.67784 11.964 3.09991C11.8881 3.52197 11.9212 3.95643 12.0603 4.3621C12.4052 5.64867 13.0978 6.8154 14.0621 7.73429C14.1401 7.81234 14.2203 7.88968 14.3004 7.96421L13.3399 8.99429Z" fill="white"/>
<path id="Vector_8" d="M13.3406 8.99985C13.2468 8.91407 13.1545 8.82571 13.0635 8.73478C11.9351 7.64194 11.1233 6.2641 10.7144 4.74735C10.6748 4.58096 10.6973 4.40585 10.7775 4.25481C10.8577 4.10377 10.9903 3.98716 11.1503 3.92681C13.0452 3.21243 15.7206 4.1279 17.8033 6.20282C18.3658 6.76543 18.8581 7.39415 19.2693 8.07524L18.0627 8.79806C17.7107 8.21556 17.2895 7.67776 16.8084 7.19634C15.407 5.80204 13.6183 4.99696 12.2943 5.10314C12.696 6.09443 13.2977 6.99226 14.062 7.74056C14.1379 7.81579 14.2167 7.89243 14.2961 7.96556L13.3406 8.99985Z" fill="white"/>
<path id="Vector_9" d="M30.2344 14.0625H31.6406V15.4688H30.2344V14.0625Z" fill="white"/>
<path id="Vector_10" d="M26.7188 15.4688H19.6875C19.501 15.4688 19.3222 15.3947 19.1903 15.2628C19.0585 15.1309 18.9844 14.9521 18.9844 14.7656V8.4375C18.9844 8.25102 19.0585 8.07218 19.1903 7.94032C19.3222 7.80845 19.501 7.73438 19.6875 7.73438H26.7188C26.9052 7.73438 27.0841 7.80845 27.2159 7.94032C27.3478 8.07218 27.4219 8.25102 27.4219 8.4375V14.7656C27.4219 14.9521 27.3478 15.1309 27.2159 15.2628C27.0841 15.3947 26.9052 15.4688 26.7188 15.4688ZM20.3906 14.0625H26.0156V9.14062H20.3906V14.0625Z" fill="white"/>
<path id="Vector_11" d="M6.32813 43.5936C6.14164 43.5936 5.9628 43.5195 5.83094 43.3876C5.69908 43.2558 5.625 43.0769 5.625 42.8904V30.9458C5.625 30.76 5.6985 30.5818 5.82945 30.4501C5.9604 30.3183 6.13816 30.2438 6.32391 30.2426L7.44117 30.2342L10.7529 26.9232C10.885 26.7918 11.0637 26.7182 11.25 26.7186H21.0375C21.6904 26.7186 22.3304 26.9004 22.8858 27.2436C23.4412 27.5869 23.89 28.078 24.182 28.662C24.474 29.2459 24.5976 29.8997 24.5389 30.5499C24.4803 31.2002 24.2417 31.8213 23.85 32.3436H30.2484L35.2673 26.8592C36.0787 25.9748 37.1961 25.4324 38.3929 25.342C39.5896 25.2517 40.7759 25.6201 41.7108 26.3726C41.8392 26.4766 41.9455 26.6051 42.0235 26.7507C42.1015 26.8963 42.1497 27.056 42.1651 27.2205C42.1806 27.385 42.163 27.5509 42.1135 27.7084C42.064 27.866 41.9835 28.0121 41.8767 28.1382L34.2837 37.0714C34.1163 37.2684 33.8971 37.4145 33.6509 37.4933L15.0047 43.5401C14.935 43.5628 14.8621 43.5744 14.7888 43.5746L6.32813 43.5936ZM7.03125 31.6447V42.1873L14.677 42.1712L33.2191 36.1566L40.687 27.3598C40.0282 26.8843 39.2178 26.6671 38.4095 26.7494C37.6011 26.8316 36.8511 27.2077 36.3016 27.8063L31.0838 33.5094C31.0177 33.5825 30.9366 33.6405 30.8461 33.6795C30.7492 33.722 30.6452 33.7458 30.5395 33.7498H16.875V32.3436H21.0438C21.3208 32.3432 21.595 32.2882 21.8508 32.1818C22.1066 32.0754 22.3389 31.9197 22.5345 31.7235C22.73 31.5273 22.8851 31.2946 22.9907 31.0385C23.0963 30.7824 23.1505 30.508 23.15 30.231C23.1496 29.954 23.0947 29.6798 22.9883 29.4241C22.8819 29.1683 22.7261 28.936 22.53 28.7404C22.3338 28.5448 22.101 28.3898 21.845 28.2842C21.5889 28.1786 21.3145 28.1244 21.0375 28.1248H11.5411L8.23148 31.4344C8.10086 31.5651 7.92406 31.6391 7.7393 31.6405L7.03125 31.6447Z" fill="white"/>
<path id="Vector_12" d="M6.32812 45H0.703125C0.516645 45 0.337802 44.9259 0.205941 44.7941C0.074079 44.6622 0 44.4834 0 44.2969V41.4844H1.40625V43.5938H5.625V30.2344H1.40625V39.375H0V29.5312C0 29.3448 0.074079 29.1659 0.205941 29.0341C0.337802 28.9022 0.516645 28.8281 0.703125 28.8281H6.32812C6.51461 28.8281 6.69345 28.9022 6.82531 29.0341C6.95717 29.1659 7.03125 29.3448 7.03125 29.5312V44.2969C7.03125 44.4834 6.95717 44.6622 6.82531 44.7941C6.69345 44.9259 6.51461 45 6.32812 45Z" fill="white"/>
<path id="Vector_13" d="M40.7812 11.25H45V12.6562H40.7812V11.25Z" fill="white"/>
<path id="Vector_14" d="M40.2793 9.35034L42.7404 6.88928L43.7347 7.88365L41.2737 10.3447L40.2793 9.35034Z" fill="white"/>
<path id="Vector_15" d="M40.2773 14.5625L41.2717 13.5681L43.7328 16.0292L42.7384 17.0236L40.2773 14.5625Z" fill="white"/>
<path id="Vector_16" d="M1.40625 11.25H5.625V12.6562H1.40625V11.25Z" fill="white"/>
<path id="Vector_17" d="M2.66406 16.0251L5.12513 13.5641L6.11949 14.5585L3.65843 17.0195L2.66406 16.0251Z" fill="white"/>
<path id="Vector_18" d="M2.66602 7.87915L3.66038 6.88478L6.12145 9.34584L5.12708 10.3402L2.66602 7.87915Z" fill="white"/>
<path id="Vector_19" d="M37.9688 15.4688H8.4375C8.25102 15.4688 8.07218 15.3947 7.94032 15.2628C7.80845 15.1309 7.73438 14.9521 7.73438 14.7656V8.4375C7.73438 8.25102 7.80845 8.07218 7.94032 7.94032C8.07218 7.80845 8.25102 7.73438 8.4375 7.73438H37.9688C38.1552 7.73438 38.3341 7.80845 38.4659 7.94032C38.5978 8.07218 38.6719 8.25102 38.6719 8.4375V14.7656C38.6719 14.9521 38.5978 15.1309 38.4659 15.2628C38.3341 15.3947 38.1552 15.4688 37.9688 15.4688ZM9.14062 14.0625H37.2656V9.14062H9.14062V14.0625Z" fill="white"/>
</g>
</g>
</g>
<defs>
<clipPath id="clip0_198_2069">
<rect width="45" height="45" fill="white"/>
</clipPath>
</defs>
</svg>
