<svg width="45" height="45" viewBox="0 0 45 45" fill="none" xmlns="http://www.w3.org/2000/svg">
<g id="gift-card (2) 1">
<path id="Gift_Card" d="M38.4375 7.5H6.5625C3.97781 7.5 1.875 9.60281 1.875 12.1875V32.8125C1.875 35.3972 3.97781 37.5 6.5625 37.5H38.4375C41.0222 37.5 43.125 35.3972 43.125 32.8125V12.1875C43.125 9.60281 41.0222 7.5 38.4375 7.5ZM41.25 12.1875V19.2188H26.25V15.9375C26.25 15.6413 26.1098 15.3619 25.8722 15.1856C25.6336 15.0089 25.3266 14.955 25.043 15.0394L19.1953 16.7934C18.5653 16.1827 17.7666 15.7448 16.8745 15.563V9.375H38.437C39.9886 9.375 41.25 10.6364 41.25 12.1875ZM22.9903 28.5938H20.3222L18.5123 24.0689C18.7575 23.9072 18.9858 23.7225 19.1958 23.5191L21.2011 24.1205L22.9903 28.5938ZM15.9375 17.3438C17.4886 17.3438 18.75 18.6052 18.75 20.1563C18.75 21.7073 17.4886 22.9688 15.9375 22.9688C14.3864 22.9688 13.125 21.7073 13.125 20.1563C13.125 18.6052 14.3864 17.3438 15.9375 17.3438ZM11.5861 21.8892L7.5 23.115V17.1975L11.5861 18.4233C11.3714 18.96 11.25 19.5441 11.25 20.1563C11.25 20.7684 11.3714 21.3525 11.5861 21.8892ZM10.6739 24.1205L12.6792 23.5191C12.8892 23.7225 13.1175 23.9072 13.3627 24.0689L11.5528 28.5938H8.88469L10.6739 24.1205ZM20.2889 21.8892C20.5036 21.3525 20.625 20.7684 20.625 20.1563C20.625 19.5441 20.5036 18.96 20.2889 18.4233L24.375 17.1975V23.1145L20.2889 21.8892ZM6.5625 9.375H15V15.5634C14.108 15.7453 13.3092 16.1831 12.6792 16.7939L6.83203 15.0398C6.54891 14.955 6.24047 15.0094 6.00281 15.1861C5.76516 15.3619 5.625 15.6413 5.625 15.9375V19.2188H3.75V12.1875C3.75 10.6364 5.01141 9.375 6.5625 9.375ZM3.75 32.8125V21.0938H5.625V24.375C5.625 24.6713 5.76516 24.9506 6.00281 25.1269C6.16641 25.2488 6.36328 25.3125 6.5625 25.3125C6.6525 25.3125 6.74344 25.2998 6.83203 25.2731L8.37937 24.8091L6.63 29.183C6.51422 29.4717 6.54984 29.7989 6.72422 30.0567C6.89859 30.3145 7.18875 30.4688 7.5 30.4688H12.1875C12.5709 30.4688 12.9155 30.2353 13.058 29.8795L15 25.0242V35.625H6.5625C5.01141 35.625 3.75 34.3636 3.75 32.8125ZM38.4375 35.625H16.875V25.0242L18.817 29.8795C18.9595 30.2353 19.3041 30.4688 19.6875 30.4688H24.375C24.6863 30.4688 24.9769 30.3145 25.1512 30.0567C25.3256 29.7989 25.3608 29.4717 25.2455 29.183L23.4956 24.8091L25.043 25.2731C25.1316 25.2998 25.2225 25.3125 25.3125 25.3125C25.5117 25.3125 25.7086 25.2488 25.8722 25.1269C26.1098 24.9506 26.25 24.6713 26.25 24.375V21.0938H41.25V32.8125C41.25 34.3636 39.9886 35.625 38.4375 35.625Z" fill="white"/>
</g>
</svg>
