<svg width="11" height="11" viewBox="0 0 11 11" fill="none" xmlns="http://www.w3.org/2000/svg">
<path d="M5.70325 1.74756C5.00776 1.74756 4.32788 1.9538 3.7496 2.34019C3.17132 2.72659 2.7206 3.27579 2.45445 3.91834C2.18829 4.56089 2.11865 5.26794 2.25434 5.95007C2.39002 6.6322 2.72493 7.25878 3.21672 7.75057C3.70851 8.24236 4.33509 8.57727 5.01722 8.71296C5.69935 8.84864 6.4064 8.779 7.04895 8.51285C7.6915 8.24669 8.2407 7.79598 8.6271 7.21769C9.0135 6.63941 9.21973 5.95954 9.21973 5.26404C9.21872 4.33172 8.8479 3.43788 8.18866 2.77864C7.52941 2.11939 6.63557 1.74858 5.70325 1.74756ZM7.30409 6.47639C7.27292 6.51588 7.23324 6.54783 7.18802 6.56987C7.14279 6.5919 7.09317 6.60345 7.04286 6.60365C6.96713 6.60426 6.8936 6.57817 6.83518 6.52997L5.49557 5.52527C5.45612 5.49406 5.42421 5.45438 5.40218 5.40916C5.38016 5.36394 5.36859 5.31434 5.36835 5.26404V2.91972C5.36835 2.8309 5.40363 2.74571 5.46644 2.68291C5.52925 2.6201 5.61443 2.58482 5.70325 2.58482C5.79207 2.58482 5.87726 2.6201 5.94006 2.68291C6.00287 2.74571 6.03816 2.8309 6.03816 2.91972V5.10329L7.25054 6.00753C7.2854 6.03439 7.31451 6.06798 7.33615 6.10631C7.35778 6.14463 7.3715 6.18691 7.3765 6.23063C7.38149 6.27436 7.37765 6.31864 7.36522 6.36085C7.35278 6.40307 7.33199 6.44236 7.30409 6.47639Z" fill="white"/>
<path d="M5.70336 0.240356C4.70979 0.240356 3.73854 0.534982 2.91243 1.08698C2.08631 1.63897 1.44243 2.42354 1.06221 3.34148C0.681986 4.25941 0.582503 5.26948 0.776338 6.24395C0.970173 7.21842 1.44862 8.11353 2.15117 8.81609C2.85373 9.51864 3.74884 9.99709 4.72331 10.1909C5.69779 10.3848 6.70785 10.2853 7.62579 9.90506C8.54372 9.52483 9.32829 8.88095 9.88028 8.05484C10.4323 7.22872 10.7269 6.25747 10.7269 5.2639C10.7253 3.93207 10.1955 2.65526 9.25375 1.71351C8.31201 0.771762 7.03519 0.241977 5.70336 0.240356ZM5.70336 9.47251C4.87097 9.47251 4.05728 9.22568 3.36518 8.76324C2.67308 8.30079 2.13365 7.64349 1.81511 6.87447C1.49657 6.10545 1.41323 5.25923 1.57562 4.44284C1.73801 3.62645 2.13884 2.87655 2.72742 2.28797C3.31601 1.69938 4.06591 1.29855 4.8823 1.13616C5.69869 0.97377 6.5449 1.05711 7.31392 1.37565C8.08295 1.69419 8.74024 2.23362 9.20269 2.92572C9.66514 3.61783 9.91197 4.43152 9.91197 5.2639C9.91089 6.37977 9.46714 7.44962 8.67811 8.23865C7.88907 9.02769 6.81922 9.47144 5.70336 9.47251Z" fill="white"/>
</svg>
