<svg width="22" height="22" viewBox="0 0 22 22" fill="none" xmlns="http://www.w3.org/2000/svg">
<g id="cross (3) 1" opacity="0.5" clip-path="url(#clip0_228_19)">
<path id="Vector" d="M13.0122 11.0001L21.583 2.42927C21.7158 2.29713 21.821 2.13997 21.8926 1.96689C21.9642 1.79381 22.0007 1.60824 22.0001 1.42094C22.0025 1.23407 21.9667 1.04868 21.895 0.876103C21.8232 0.703523 21.7171 0.547374 21.583 0.417191C21.4528 0.283106 21.2967 0.176966 21.1241 0.105255C20.9515 0.033544 20.7661 -0.00223353 20.5793 0.000107931C20.392 -0.000502775 20.2064 0.0360463 20.0333 0.107639C19.8602 0.179232 19.7031 0.284446 19.5709 0.417191L11.0001 8.98802L2.42927 0.417191C2.29713 0.284446 2.13997 0.179232 1.96689 0.107639C1.79381 0.0360463 1.60824 -0.000502775 1.42094 0.000107931C1.23407 -0.00223353 1.04868 0.033544 0.876103 0.105255C0.703523 0.176966 0.547374 0.283106 0.417191 0.417191C0.283106 0.547374 0.176966 0.703523 0.105255 0.876103C0.033544 1.04868 -0.00223353 1.23407 0.000107931 1.42094C-0.000502775 1.60824 0.0360463 1.79381 0.107639 1.96689C0.179232 2.13997 0.284446 2.29713 0.417191 2.42927L8.98802 11.0001L0.417191 19.5709C0.284446 19.7031 0.179232 19.8602 0.107639 20.0333C0.0360463 20.2064 -0.000502775 20.392 0.000107931 20.5793C-0.00223353 20.7661 0.033544 20.9515 0.105255 21.1241C0.176966 21.2967 0.283106 21.4528 0.417191 21.583C0.547374 21.7171 0.703523 21.8232 0.876103 21.895C1.04868 21.9667 1.23407 22.0025 1.42094 22.0001C1.60824 22.0007 1.79381 21.9642 1.96689 21.8926C2.13997 21.821 2.29713 21.7158 2.42927 21.583L11.0001 13.0122L19.5709 21.583C19.7031 21.7158 19.8602 21.821 20.0333 21.8926C20.2064 21.9642 20.392 22.0007 20.5793 22.0001C20.9557 21.9989 21.3164 21.8488 21.5826 21.5826C21.8488 21.3164 21.9989 20.9557 22.0001 20.5793C22.0007 20.392 21.9642 20.2064 21.8926 20.0333C21.821 19.8602 21.7158 19.7031 21.583 19.5709L13.0122 11.0001Z" fill="#26272B"/>
</g>
<defs>
<clipPath id="clip0_228_19">
<rect width="22" height="22" fill="white"/>
</clipPath>
</defs>
</svg>
