<svg width="61" height="61" viewBox="0 0 61 61" fill="none" xmlns="http://www.w3.org/2000/svg">
<g id="Odnoklas">
<g id="Group">
<circle id="Ellipse 27" cx="30.7661" cy="30.3906" r="30" fill="#E38F40"/>
<circle id="Ellipse 26" cx="30.7662" cy="30.3906" r="15" fill="white"/>
<path id="Vector" d="M31.2823 27.3906C32.6677 27.3856 33.7711 26.273 33.766 24.8851C33.761 23.4966 32.6552 22.3918 31.2692 22.3906C29.8716 22.3891 28.7554 23.5144 28.7661 24.9154C28.7765 26.2983 29.8924 27.3957 31.2823 27.3906Z" fill="#E38F40"/>
<path id="Vector_2" d="M30.7662 15.3906C22.4819 15.3906 15.7662 22.1066 15.7662 30.3906C15.7662 38.6746 22.4819 45.3906 30.7662 45.3906C39.0505 45.3906 45.7662 38.6746 45.7662 30.3906C45.7662 22.1066 39.0505 15.3906 30.7662 15.3906ZM30.7877 19.9522C33.7094 19.9601 36.0545 22.35 36.0394 25.304C36.0247 28.1898 33.6413 30.5287 30.7244 30.5189C27.8374 30.5091 25.4696 28.1155 25.4868 25.2239C25.5031 22.3006 27.8721 19.9442 30.7877 19.9522ZM36.7054 32.5948C36.0594 33.258 35.2817 33.738 34.418 34.0729C33.6017 34.3893 32.707 34.5486 31.8213 34.6548C31.9554 34.8002 32.0183 34.8717 32.1018 34.9552C33.3037 36.1635 34.5113 37.3657 35.7092 38.5773C36.1174 38.9904 36.2024 39.5023 35.9777 39.982C35.7325 40.5068 35.1822 40.8518 34.6424 40.8147C34.3005 40.791 34.0338 40.6213 33.7972 40.3828C32.89 39.4701 31.9656 38.5736 31.0774 37.6437C30.818 37.373 30.6941 37.4246 30.4654 37.6597C29.553 38.5994 28.6255 39.5241 27.6928 40.4439C27.2739 40.857 26.7755 40.9319 26.2893 40.6956C25.7728 40.4458 25.4444 39.9182 25.4696 39.3876C25.4874 39.0297 25.6636 38.7553 25.9097 38.5104C27.0996 37.323 28.2858 36.1319 29.4723 34.9417C29.5511 34.8628 29.6242 34.7791 29.7387 34.6563C28.1203 34.4872 26.661 34.0888 25.4116 33.112C25.2563 32.9904 25.0964 32.8732 24.9552 32.7369C24.408 32.2118 24.3531 31.61 24.7855 30.9906C25.1559 30.4603 25.7771 30.3185 26.4232 30.6233C26.5484 30.6819 26.6675 30.7561 26.7816 30.8347C29.1098 32.4346 32.3084 32.4785 34.6458 30.9062C34.8772 30.7294 35.1248 30.584 35.4118 30.5106C35.9691 30.367 36.4897 30.5723 36.7886 31.0603C37.1308 31.6179 37.1268 32.1618 36.7054 32.5948Z" fill="#E38F40"/>
</g>
</g>
</svg>
