<svg width="41" height="41" viewBox="0 0 41 41" fill="none" xmlns="http://www.w3.org/2000/svg">
<ellipse cx="20.6594" cy="20.0942" rx="20.0942" ry="20.0942" fill="#CBAE86"/>
<circle cx="20.6594" cy="20.0942" r="12.0565" fill="#26272B"/>
<path d="M21.0743 17.6829C22.1878 17.6788 23.0747 16.7846 23.0706 15.6691C23.0666 14.553 22.1778 13.665 21.0638 13.6641C19.9404 13.6629 19.0433 14.5673 19.0519 15.6934C19.0602 16.8049 19.9571 17.6869 21.0743 17.6829Z" fill="#CBAE86"/>
<path d="M20.6594 8.03772C14.0007 8.03772 8.60284 13.4358 8.60284 20.0942C8.60284 26.7526 14.0007 32.1507 20.6594 32.1507C27.318 32.1507 32.7159 26.7526 32.7159 20.0942C32.7159 13.4358 27.318 8.03772 20.6594 8.03772ZM20.6766 11.7041C23.025 11.7105 24.9099 13.6314 24.8978 16.0057C24.886 18.3253 22.9703 20.2052 20.6258 20.1973C18.3053 20.1895 16.4021 18.2656 16.416 15.9414C16.429 13.5917 18.3332 11.6977 20.6766 11.7041ZM25.4331 21.8659C24.9139 22.399 24.2888 22.7848 23.5946 23.0539C22.9384 23.3082 22.2194 23.4363 21.5074 23.5216C21.6152 23.6385 21.6658 23.696 21.7329 23.7631C22.6989 24.7343 23.6696 25.7005 24.6324 26.6744C24.9605 27.0065 25.0288 27.4179 24.8482 27.8035C24.6511 28.2253 24.2088 28.5026 23.7749 28.4727C23.5001 28.4537 23.2858 28.3173 23.0956 28.1257C22.3664 27.392 21.6234 26.6715 20.9095 25.924C20.701 25.7065 20.6014 25.7479 20.4176 25.9369C19.6842 26.6922 18.9388 27.4354 18.1891 28.1748C17.8524 28.5068 17.4518 28.567 17.061 28.377C16.6459 28.1762 16.3819 27.7522 16.4021 27.3257C16.4165 27.038 16.558 26.8175 16.7559 26.6207C17.7123 25.6663 18.6657 24.7089 19.6194 23.7523C19.6828 23.6889 19.7415 23.6215 19.8335 23.5228C18.5327 23.3869 17.3598 23.0667 16.3555 22.2816C16.2307 22.1839 16.1022 22.0896 15.9887 21.9801C15.5489 21.558 15.5047 21.0743 15.8523 20.5765C16.15 20.1502 16.6493 20.0363 17.1686 20.2812C17.2692 20.3283 17.3649 20.388 17.4567 20.4512C19.328 21.7371 21.8989 21.7724 23.7776 20.5087C23.9636 20.3666 24.1627 20.2496 24.3934 20.1907C24.8413 20.0752 25.2597 20.2403 25.5 20.6325C25.775 21.0807 25.7718 21.5178 25.4331 21.8659Z" fill="#CBAE86"/>
</svg>
