<svg width="18" height="18" viewBox="0 0 18 18" fill="none" xmlns="http://www.w3.org/2000/svg">
<g id="phone-call " clip-path="url(#clip0_228_725)">
<path id="Vector" d="M13.3222 18C12.5649 18 11.6988 17.82 10.7514 17.4581C8.76903 16.701 6.61859 15.2255 4.69653 13.3033C2.79699 11.4039 1.33005 9.27576 0.565672 7.31099C-0.248965 5.21686 -0.181811 3.50546 0.754774 2.49184L0.769193 2.47687L3.24606 0L8.06906 4.823L6.34887 6.54318C5.69739 7.19467 5.64259 8.22643 6.22157 8.94328C6.64097 9.46252 7.09993 9.97215 7.58566 10.4579C8.05588 10.9281 8.54875 11.3735 9.05055 11.7816C9.76604 12.3635 10.7985 12.3092 11.4522 11.6557L13.1769 9.93095L17.9999 14.754L15.5793 17.1745C15.03 17.7238 14.2597 18 13.3222 18ZM1.52327 3.21501C0.891141 3.90839 0.900342 5.26094 1.54895 6.92839C2.26155 8.75995 3.64432 10.759 5.4425 12.5574C7.26198 14.3768 9.28113 15.7672 11.1278 16.4725C12.8116 17.1155 14.1622 17.0994 14.8332 16.4285L16.5077 14.754L13.1769 11.423L12.1983 12.4018C11.1607 13.4392 9.52131 13.5244 8.38478 12.6002C7.85496 12.1693 7.33517 11.6996 6.83955 11.204C6.32745 10.692 5.84337 10.1544 5.40062 9.60617C4.48189 8.46854 4.56881 6.83102 5.60263 5.79721L6.5767 4.823L3.24606 1.49222L1.52327 3.21501Z" fill="#26272B"/>
</g>
<defs>
<clipPath id="clip0_228_725">
<rect width="18" height="18" fill="white"/>
</clipPath>
</defs>
</svg>
