<svg width="13" height="14" viewBox="0 0 13 14" fill="none" xmlns="http://www.w3.org/2000/svg">
<g id="star (8) 1" clip-path="url(#clip0_188_417)">
<path id="Vector" d="M12.6135 5.44262C12.5324 5.19162 12.3097 5.01335 12.0464 4.98961L8.46858 4.66474L7.05383 1.35338C6.94951 1.1107 6.71194 0.953613 6.44798 0.953613C6.18402 0.953613 5.94645 1.1107 5.84213 1.35395L4.42738 4.66474L0.849037 4.98961C0.586118 5.01391 0.364056 5.19162 0.282438 5.44262C0.200819 5.69362 0.276196 5.96893 0.475087 6.14248L3.17946 8.51423L2.38201 12.027C2.32365 12.2853 2.4239 12.5523 2.63821 12.7072C2.7534 12.7904 2.88817 12.8328 3.02408 12.8328C3.14125 12.8328 3.25749 12.8012 3.3618 12.7388L6.44798 10.8943L9.53302 12.7388C9.75877 12.8746 10.0433 12.8622 10.2572 12.7072C10.4716 12.5518 10.5717 12.2848 10.5134 12.027L9.71593 8.51423L12.4203 6.14295C12.6192 5.96893 12.6951 5.6941 12.6135 5.44262Z" fill="#C79403"/>
</g>
<defs>
<clipPath id="clip0_188_417">
<rect width="12.3958" height="12.3958" fill="white" transform="translate(0.25 0.6875)"/>
</clipPath>
</defs>
</svg>
