<svg width="61" height="61" viewBox="0 0 61 61" fill="none" xmlns="http://www.w3.org/2000/svg">
<g id="Tg">
<ellipse id="Ellipse 32" cx="30.8522" cy="30.7565" rx="30.1413" ry="30.1413" fill="#00A3FF"/>
<ellipse id="Ellipse 31" cx="30.8524" cy="30.7567" rx="15.0706" ry="15.0706" fill="white"/>
<path id="Vector" d="M30.8524 45.8273C39.1777 45.8273 45.923 39.082 45.923 30.7567C45.923 22.4314 39.1777 15.686 30.8524 15.686C22.5271 15.686 15.7817 22.4314 15.7817 30.7567C15.7817 39.082 22.5271 45.8273 30.8524 45.8273ZM22.6778 30.4301L37.2084 24.8276C37.8828 24.584 38.4718 24.9922 38.2533 26.0119L38.2546 26.0107L35.7805 37.6666C35.5971 38.4929 35.1061 38.6939 34.4191 38.3046L30.6514 35.5278L28.8342 37.2785C28.6332 37.4794 28.4637 37.649 28.0744 37.649L28.3419 33.8148L35.3246 27.5064C35.6285 27.2389 35.2568 27.0882 34.8561 27.3545L26.227 32.7874L22.507 31.627C21.6995 31.3708 21.6819 30.8195 22.6778 30.4301Z" fill="#00A3FF"/>
</g>
</svg>
