<svg width="41" height="41" viewBox="0 0 41 41" fill="none" xmlns="http://www.w3.org/2000/svg">
<ellipse cx="20.0942" cy="20.0942" rx="20.0942" ry="20.0942" fill="#CBAE86"/>
<circle cx="20.0942" cy="20.0942" r="12.0565" fill="#26272B"/>
<path d="M20.0942 32.1507C26.7544 32.1507 32.1507 26.7545 32.1507 20.0942C32.1507 13.434 26.7544 8.03772 20.0942 8.03772C13.434 8.03772 8.03766 13.434 8.03766 20.0942C8.03766 26.7545 13.434 32.1507 20.0942 32.1507ZM13.5545 19.833L25.179 15.351C25.7185 15.1561 26.1897 15.4826 26.0149 16.2984L26.0159 16.2974L24.0367 25.6221C23.89 26.2832 23.4971 26.444 22.9475 26.1325L19.9334 23.9111L18.4796 25.3117C18.3189 25.4724 18.1832 25.6081 17.8718 25.6081L18.0858 22.5407L23.6719 17.494C23.9151 17.28 23.6177 17.1595 23.2972 17.3725L16.3938 21.7189L13.4179 20.7905C12.7719 20.5855 12.7578 20.1445 13.5545 19.833Z" fill="#CBAE86"/>
</svg>
