<svg width="16" height="16" viewBox="0 0 16 16" fill="none" xmlns="http://www.w3.org/2000/svg">
<g id="Time">
<path id="Vector" d="M7.73161 0.683105C6.24127 0.683105 4.78439 1.12504 3.54521 1.95304C2.30604 2.78103 1.34021 3.95788 0.769884 5.33478C0.199554 6.71168 0.0503296 8.22679 0.341082 9.68849C0.631834 11.1502 1.3495 12.4929 2.40334 13.5467C3.45717 14.6005 4.79984 15.3182 6.26154 15.609C7.72325 15.8997 9.23835 15.7505 10.6153 15.1802C11.9922 14.6098 13.169 13.644 13.997 12.4048C14.825 11.1656 15.2669 9.70877 15.2669 8.21843C15.2647 6.22061 14.4701 4.30525 13.0575 2.89258C11.6448 1.47991 9.72943 0.685304 7.73161 0.683105ZM12.1273 12.2663L11.5168 11.6558C11.4703 11.6116 11.4083 11.5873 11.3442 11.5881C11.28 11.5889 11.2187 11.6148 11.1733 11.6602C11.128 11.7055 11.1021 11.7668 11.1013 11.831C11.1005 11.8952 11.1248 11.9571 11.1689 12.0036L11.7795 12.6141C10.74 13.5751 9.39211 14.1341 7.97766 14.191V13.4129C7.97766 13.3476 7.95174 13.285 7.9056 13.2389C7.85945 13.1927 7.79687 13.1668 7.73161 13.1668C7.66636 13.1668 7.60377 13.1927 7.55763 13.2389C7.51148 13.285 7.48556 13.3476 7.48556 13.4129V14.191C6.07112 14.1341 4.72323 13.5751 3.68376 12.6141L4.34133 11.9569C4.38553 11.9103 4.4098 11.8484 4.40898 11.7842C4.40816 11.7201 4.38231 11.6588 4.33694 11.6134C4.29156 11.568 4.23026 11.5422 4.1661 11.5414C4.10194 11.5405 4.04 11.5648 3.99348 11.609L3.33591 12.2663C2.37481 11.2269 1.81572 9.87897 1.75903 8.46448H2.53716C2.60242 8.46448 2.665 8.43855 2.71115 8.39241C2.75729 8.34627 2.78321 8.28368 2.78321 8.21843C2.78321 8.15317 2.75729 8.09059 2.71115 8.04444C2.665 7.9983 2.60242 7.97237 2.53716 7.97237H1.75903C1.81577 6.5579 2.37485 5.20997 3.33591 4.17058L3.91074 4.74541C3.93322 4.76975 3.96038 4.78929 3.99059 4.80287C4.0208 4.81646 4.05344 4.8238 4.08656 4.82447C4.11967 4.82513 4.15259 4.8191 4.18332 4.80674C4.21405 4.79438 4.24197 4.77594 4.2654 4.75253C4.28883 4.72912 4.3073 4.70121 4.31969 4.67049C4.33208 4.63977 4.33813 4.60687 4.3375 4.57375C4.33686 4.54063 4.32955 4.50798 4.31599 4.47776C4.30243 4.44754 4.28291 4.42036 4.2586 4.39786L3.68376 3.82272C4.72313 2.86162 6.07107 2.30253 7.48556 2.24584V3.02398C7.48556 3.08923 7.51148 3.15182 7.55763 3.19796C7.60377 3.2441 7.66636 3.27003 7.73161 3.27003C7.79687 3.27003 7.85945 3.2441 7.9056 3.19796C7.95174 3.15182 7.97766 3.08923 7.97766 3.02398V2.24584C9.39214 2.30258 10.7401 2.86167 11.7795 3.82272L11.1194 4.48275C11.0752 4.52927 11.051 4.59121 11.0518 4.65538C11.0526 4.71954 11.0785 4.78084 11.1238 4.82621C11.1692 4.87158 11.2305 4.89744 11.2947 4.89826C11.3588 4.89908 11.4208 4.8748 11.4673 4.83061L12.1273 4.17058C13.0884 5.20994 13.6475 6.55789 13.7042 7.97237H12.9261C12.8608 7.97237 12.7982 7.9983 12.7521 8.04444C12.7059 8.09059 12.68 8.15317 12.68 8.21843C12.68 8.28368 12.7059 8.34627 12.7521 8.39241C12.7982 8.43855 12.8608 8.46448 12.9261 8.46448H13.7042C13.6475 9.87897 13.0884 11.2269 12.1273 12.2663Z" fill="#836C4A"/>
<path id="Vector_2" d="M7.9777 7.96277V5.14302C7.9777 5.07777 7.95178 5.01518 7.90563 4.96904C7.85949 4.9229 7.79691 4.89697 7.73165 4.89697C7.66639 4.89697 7.60381 4.9229 7.55766 4.96904C7.51152 5.01518 7.4856 5.07777 7.4856 5.14302V8.06488C7.48545 8.0972 7.49177 8.12923 7.50418 8.15907C7.51659 8.18891 7.53485 8.21597 7.55788 8.23866L9.0185 9.69928C9.06521 9.74242 9.12681 9.76581 9.19038 9.76453C9.25395 9.76326 9.31456 9.73742 9.3595 9.69244C9.40445 9.64745 9.43023 9.58682 9.43145 9.52325C9.43267 9.45967 9.40923 9.39809 9.36604 9.35142L7.9777 7.96277Z" fill="#836C4A"/>
</g>
</svg>
