<svg width="16" height="16" viewBox="0 0 16 16" fill="none" xmlns="http://www.w3.org/2000/svg">
<g id="user (14) 1">
<g id="Icon">
<path id="Vector" fill-rule="evenodd" clip-rule="evenodd" d="M8 0.833252C10.2073 0.833252 12 2.62592 12 4.83325C12 7.04059 10.2073 8.83325 8 8.83325C5.79267 8.83325 4 7.04059 4 4.83325C4 2.62592 5.79267 0.833252 8 0.833252ZM8 1.83325C6.344 1.83325 5 3.17725 5 4.83325C5 6.48925 6.344 7.83325 8 7.83325C9.656 7.83325 11 6.48925 11 4.83325C11 3.17725 9.656 1.83325 8 1.83325Z" fill="#CBAE86"/>
<path id="Vector_2" fill-rule="evenodd" clip-rule="evenodd" d="M2.16699 14.6666C2.16699 14.9426 1.94299 15.1666 1.66699 15.1666C1.39099 15.1666 1.16699 14.9426 1.16699 14.6666C1.16699 10.8953 4.22899 7.83325 8.00033 7.83325C11.7717 7.83325 14.8337 10.8953 14.8337 14.6666C14.8337 14.9426 14.6097 15.1666 14.3337 15.1666C14.0577 15.1666 13.8337 14.9426 13.8337 14.6666C13.8337 11.4473 11.2197 8.83325 8.00033 8.83325C4.78099 8.83325 2.16699 11.4473 2.16699 14.6666Z" fill="#CBAE86"/>
</g>
</g>
</svg>
