<svg width="25" height="25" viewBox="0 0 25 25" fill="none" xmlns="http://www.w3.org/2000/svg">
<g clip-path="url(#clip0_188_101)">
<circle cx="12.5" cy="12.5" r="12.5" fill="#940FD2"/>
<circle cx="13" cy="12" r="9" fill="white"/>
<path d="M17.7205 9.99298C17.633 9.65207 17.3796 9.26343 17.0614 8.93048C16.6705 8.52139 16.1705 8.18843 15.733 8.09071C13.927 7.74516 12.0719 7.74516 10.2659 8.09071C9.47047 8.26798 8.47388 9.22707 8.27956 9.99298C7.95474 11.4712 7.95474 13.0023 8.27956 14.4805C8.43638 15.1009 9.11706 15.8441 9.79093 16.2009C9.94027 16.2831 10.1001 16.3446 10.2659 16.3839C10.2831 16.3868 10.2987 16.3957 10.3099 16.4091C10.3211 16.4224 10.3273 16.4392 10.3273 16.4566V18.6384C10.3273 18.6626 10.3345 18.6861 10.348 18.7061C10.3615 18.7261 10.3807 18.7415 10.4031 18.7505C10.4255 18.7594 10.4501 18.7614 10.4737 18.7562C10.4972 18.7511 10.5187 18.7389 10.5352 18.7214L11.5727 17.6589L12.5455 16.6589C12.5524 16.6514 12.5608 16.6455 12.5702 16.6415C12.5797 16.6376 12.5898 16.6358 12.6 16.6362C13.65 16.6644 14.6999 16.5798 15.7318 16.3839C16.5273 16.2066 17.5239 15.2475 17.7193 14.4805C18.0445 13.0024 18.0449 11.4713 17.7205 9.99298ZM15.7614 14.5907C15.6139 14.9277 15.36 15.2071 15.0387 15.3862C14.9381 15.4298 14.8334 15.4633 14.7262 15.4862C14.6046 15.4487 14.4887 15.4248 14.3852 15.3793C13.5255 15.0437 12.7255 14.5718 12.0159 13.9816C11.8051 13.8007 11.6065 13.606 11.4216 13.3987C10.9662 12.8743 10.5839 12.2905 10.2852 11.6634C10.1398 11.368 10.0171 11.06 9.89206 10.7543C9.77843 10.4759 9.94661 10.1862 10.1193 9.97934C10.288 9.78605 10.4961 9.63107 10.7296 9.5248C10.8115 9.48311 10.9056 9.47165 10.9951 9.49243C11.0847 9.51321 11.1641 9.56491 11.2193 9.63843C11.5074 9.96511 11.7614 10.3204 11.9773 10.6987C12.0455 10.8089 12.0688 10.941 12.0424 11.0679C12.0159 11.1948 11.9418 11.3067 11.8352 11.3805C11.7784 11.4191 11.7216 11.4657 11.6727 11.5089C11.6245 11.545 11.583 11.5892 11.55 11.6396C11.5213 11.6865 11.504 11.7395 11.4992 11.7943C11.4945 11.8491 11.5025 11.9043 11.5227 11.9555C11.7421 12.5589 12.075 13.0612 12.5727 13.4146C12.7412 13.534 12.9226 13.6339 13.1137 13.7123C13.2383 13.7803 13.3786 13.8144 13.5205 13.8112C13.7682 13.7816 13.85 13.5089 14.0227 13.3668C14.1022 13.3021 14.2003 13.2647 14.3027 13.2602C14.4051 13.2557 14.5061 13.2843 14.5909 13.3418C14.775 13.4555 14.9523 13.5828 15.1296 13.7089C15.3049 13.8282 15.4737 13.9568 15.6352 14.0941C15.7107 14.1493 15.7646 14.2291 15.7876 14.3197C15.8106 14.4104 15.8013 14.5062 15.7614 14.5907ZM14.1296 11.8634C14.1226 11.8448 14.118 11.8253 14.1159 11.8055C14.11 11.729 14.0986 11.653 14.0818 11.5782C14.0484 11.4262 13.9623 11.291 13.8387 11.1964C13.7788 11.154 13.7124 11.1218 13.6421 11.1009C13.5523 11.0759 13.458 11.0828 13.3693 11.0612C13.3255 11.0534 13.2866 11.0286 13.261 10.9922C13.2355 10.9557 13.2254 10.9107 13.233 10.8668C13.2412 10.8246 13.2646 10.7869 13.2987 10.7607C13.3328 10.7346 13.3753 10.7218 13.4182 10.7248C13.9387 10.7634 14.3273 11.0134 14.4273 11.5714C14.4377 11.6232 14.4449 11.6755 14.4489 11.7282C14.4563 11.7753 14.4563 11.8232 14.4489 11.8703C14.4426 11.8991 14.4277 11.9254 14.4062 11.9457C14.3847 11.966 14.3576 11.9793 14.3284 11.9839H14.3034C14.2651 11.9863 14.2271 11.9758 14.1956 11.9539C14.164 11.932 14.1407 11.9002 14.1296 11.8634ZM13.9637 10.4555C13.7885 10.3732 13.6026 10.3162 13.4114 10.2862C13.3273 10.2725 13.2432 10.2646 13.1591 10.2532C13.1371 10.2521 13.1156 10.2465 13.0958 10.2367C13.0761 10.227 13.0586 10.2132 13.0444 10.1964C13.0302 10.1795 13.0197 10.1599 13.0134 10.1388C13.0071 10.1177 13.0053 10.0955 13.008 10.0737C13.0081 10.0515 13.013 10.0296 13.0222 10.0094C13.0314 9.98924 13.0447 9.97122 13.0613 9.95653C13.0779 9.94185 13.0975 9.93082 13.1186 9.92418C13.1398 9.91754 13.1621 9.91543 13.1841 9.91798C13.5178 9.93086 13.8447 10.0162 14.1421 10.168C14.5051 10.3504 14.8013 10.6427 14.9887 11.0032C15.0941 11.2143 15.1647 11.4411 15.1977 11.6748C15.204 11.7052 15.2085 11.7359 15.2114 11.7668C15.2171 11.835 15.2193 11.9021 15.225 11.9873V12.0191C15.2242 12.0529 15.2196 12.0864 15.2114 12.1191C15.2013 12.1519 15.1814 12.1808 15.1544 12.2019C15.1273 12.223 15.0944 12.2352 15.0601 12.237C15.0259 12.2387 14.9919 12.2299 14.9629 12.2116C14.9338 12.1934 14.9111 12.1666 14.8977 12.135C14.8851 12.0892 14.8794 12.0417 14.8807 11.9941C14.8832 11.7403 14.8329 11.4888 14.733 11.2555C14.7103 11.2041 14.6849 11.1541 14.6568 11.1055C14.4939 10.826 14.253 10.6001 13.9637 10.4555ZM15.8409 12.5509C15.7273 12.5509 15.6716 12.4543 15.6637 12.3487C15.6489 12.1407 15.6375 11.9316 15.6091 11.7248C15.5598 11.3755 15.4383 11.0404 15.2523 10.7407C15.0609 10.429 14.8063 10.161 14.5049 9.95386C14.2034 9.74677 13.8619 9.60524 13.5023 9.53843C13.3387 9.51003 13.1716 9.50321 13.0068 9.48503C12.9023 9.4748 12.7648 9.46798 12.7421 9.3373C12.739 9.31226 12.7413 9.28686 12.7487 9.26275C12.7562 9.23865 12.7686 9.21639 12.7852 9.19741C12.8018 9.17843 12.8223 9.16317 12.8452 9.15262C12.8681 9.14206 12.893 9.13646 12.9182 9.13616H13.0398C13.5298 9.14644 14.0099 9.27599 14.4386 9.51359C14.8673 9.7512 15.2316 10.0897 15.5 10.4998C15.7151 10.8342 15.8611 11.2082 15.9296 11.5998C15.9727 11.8464 15.9887 12.0987 16.008 12.3487C16.0117 12.3731 16.0102 12.3981 16.0036 12.422C15.9969 12.4458 15.9854 12.468 15.9696 12.4871C15.9539 12.5062 15.9343 12.5217 15.9121 12.5327C15.8899 12.5437 15.8657 12.5499 15.8409 12.5509Z" fill="#940FD2"/>
<path d="M13 3C11.0222 3 9.08879 3.58649 7.4443 4.6853C5.79981 5.78412 4.51809 7.3459 3.76121 9.17317C3.00433 11.0004 2.8063 13.0111 3.19215 14.9509C3.578 16.8907 4.53041 18.6725 5.92894 20.0711C7.32746 21.4696 9.10929 22.422 11.0491 22.8079C12.9889 23.1937 14.9996 22.9957 16.8268 22.2388C18.6541 21.4819 20.2159 20.2002 21.3147 18.5557C22.4135 16.9112 23 14.9778 23 13C23 10.3478 21.9464 7.8043 20.0711 5.92893C18.1957 4.05357 15.6522 3 13 3ZM18.7761 14.7193V14.733C18.4852 15.9136 17.1693 17.1784 15.9614 17.442H15.9477C14.9763 17.629 13.9893 17.7238 13 17.725C12.7114 17.725 12.4205 17.7159 12.1318 17.6989L10.7977 19.0864C10.7244 19.1617 10.6303 19.2136 10.5274 19.2353C10.4245 19.2569 10.3174 19.2475 10.2199 19.2081C10.1224 19.1688 10.0388 19.1012 9.97983 19.0142C9.92083 18.9271 9.88908 18.8245 9.88864 18.7193V17.4023C9.57525 17.3091 9.27705 17.171 9.00341 16.992C8.16478 16.4591 7.4375 15.5739 7.22841 14.733V14.7193C6.8682 13.084 6.8682 11.3899 7.22841 9.75455V9.73977C7.51932 8.56023 8.83409 7.29545 10.0455 7.03182H10.0591C12.0043 6.65909 14.0025 6.65909 15.9477 7.03182H15.9614C16.6136 7.17386 17.2966 7.60795 17.833 8.16818C18.2875 8.63977 18.642 9.20227 18.7761 9.74432V9.75909C19.1357 11.393 19.1357 13.0855 18.7761 14.7193Z" fill="#940FD2"/>
</g>
<defs>
<clipPath id="clip0_188_101">
<rect width="25" height="25" fill="white"/>
</clipPath>
</defs>
</svg>
