<svg width="60" height="61" viewBox="0 0 60 61" fill="none" xmlns="http://www.w3.org/2000/svg">
<g id="VK">
<circle id="Ellipse 27" cx="29.9999" cy="30.3906" r="30" fill="#4953B0"/>
<circle id="Ellipse 31" cx="30" cy="30.3906" r="15" fill="#4953B0"/>
<g id="Group">
<g id="Group_2">
<path id="Vector" d="M36.8625 29.9376C37.1307 29.591 37.3435 29.3128 37.5008 29.103C38.6331 27.5975 39.1239 26.6359 38.9734 26.2166L38.9144 26.1184C38.8752 26.0594 38.7736 26.0053 38.6101 25.9562C38.4464 25.9072 38.237 25.8994 37.9818 25.9318L35.1542 25.9517C35.0888 25.9452 35.0233 25.9467 34.9578 25.9562C34.8924 25.9662 34.8499 25.9762 34.8301 25.9857C34.8104 25.9957 34.7941 26.0037 34.7811 26.0102L34.7419 26.0397C34.7092 26.0592 34.6732 26.0937 34.634 26.1429C34.5947 26.1921 34.5618 26.2492 34.5358 26.3148C34.2281 27.1068 33.878 27.8432 33.4852 28.5239C33.243 28.9298 33.0204 29.2818 32.8177 29.5793C32.6148 29.8773 32.4446 30.0965 32.3071 30.237C32.1697 30.3777 32.0452 30.4908 31.9341 30.5756C31.8226 30.6611 31.7377 30.6968 31.6789 30.6838C31.6199 30.6708 31.5642 30.6578 31.512 30.6444C31.4203 30.5856 31.3466 30.5056 31.2911 30.404C31.2354 30.3027 31.1979 30.175 31.1781 30.0211C31.1586 29.8674 31.1469 29.7347 31.1439 29.6233C31.1404 29.5121 31.1421 29.3551 31.1489 29.152C31.1554 28.949 31.1586 28.8119 31.1586 28.7397C31.1586 28.4912 31.1636 28.2211 31.1734 27.9297C31.1831 27.6386 31.1914 27.4077 31.1979 27.2375C31.2044 27.0675 31.2076 26.8874 31.2076 26.6975C31.2076 26.508 31.1961 26.3588 31.1731 26.2507C31.1501 26.1429 31.1157 26.0382 31.0701 25.9365C31.0242 25.8353 30.9572 25.7566 30.8687 25.7011C30.7803 25.6454 30.6708 25.6014 30.5399 25.5684C30.1928 25.4897 29.751 25.4477 29.2144 25.4408C27.9969 25.4282 27.2147 25.5066 26.8679 25.6766C26.7304 25.7488 26.606 25.8468 26.4948 25.9712C26.3769 26.1154 26.3606 26.1941 26.4458 26.2066C26.8386 26.2656 27.1166 26.4065 27.2802 26.629L27.3392 26.7467C27.385 26.8321 27.4307 26.9826 27.4767 27.1985C27.5224 27.4144 27.5519 27.6533 27.5651 27.9152C27.5978 28.393 27.5978 28.8019 27.5651 29.1425C27.5324 29.483 27.5014 29.7479 27.4719 29.9374C27.4424 30.1273 27.3982 30.281 27.3394 30.3987C27.2805 30.5169 27.2412 30.5889 27.2215 30.6151C27.2018 30.6411 27.1855 30.6575 27.1725 30.6641C27.0873 30.6966 26.9991 30.7131 26.9074 30.7131C26.8157 30.7131 26.7045 30.6671 26.5735 30.5754C26.4426 30.4842 26.3067 30.358 26.1662 30.1975C26.0253 30.0374 25.8668 29.813 25.6899 29.5249C25.5132 29.2372 25.3298 28.8966 25.1401 28.504L24.9831 28.2191C24.8849 28.0362 24.7507 27.7693 24.5805 27.4191C24.4104 27.069 24.2597 26.7304 24.1289 26.4029C24.0765 26.2656 23.998 26.1609 23.8933 26.0887L23.8443 26.0592C23.8116 26.0332 23.7591 26.0053 23.6871 25.976C23.615 25.9465 23.54 25.9252 23.4613 25.912L20.7711 25.9315C20.4962 25.9315 20.3098 25.994 20.2116 26.1184L20.1723 26.1772C20.1525 26.2101 20.1428 26.2626 20.1428 26.3343C20.1428 26.4065 20.1625 26.4948 20.2017 26.5993C20.5946 27.5224 21.0216 28.4125 21.483 29.2697C21.9445 30.1273 22.3454 30.818 22.6857 31.3416C23.0261 31.8656 23.3729 32.3594 23.7265 32.8242C24.0801 33.289 24.314 33.5866 24.4285 33.7173C24.5429 33.8485 24.6329 33.9467 24.6984 34.012L24.9438 34.2478C25.1008 34.4048 25.3317 34.5929 25.6361 34.8123C25.9404 35.0317 26.2773 35.2477 26.6474 35.4601C27.017 35.673 27.4476 35.8462 27.9384 35.9806C28.4292 36.115 28.907 36.169 29.3718 36.1426H30.5009C30.73 36.123 30.9034 36.0513 31.0212 35.9266L31.0604 35.8776C31.0864 35.8386 31.1111 35.7779 31.1341 35.6962C31.1568 35.6144 31.1686 35.5243 31.1686 35.4263C31.1618 35.1449 31.1833 34.8908 31.2323 34.6653C31.2813 34.4394 31.337 34.2695 31.3993 34.1546C31.4615 34.0403 31.5317 33.9437 31.6104 33.865C31.6889 33.7862 31.7444 33.7392 31.7773 33.7227C31.81 33.7067 31.8363 33.6952 31.8558 33.6883C32.0128 33.636 32.1977 33.6867 32.4106 33.8404C32.6232 33.9946 32.8229 34.184 33.0096 34.4099C33.196 34.6358 33.4201 34.8893 33.6821 35.1709C33.9437 35.4522 34.1728 35.6617 34.3693 35.7991L34.5657 35.9173C34.6966 35.9955 34.8666 36.0675 35.0762 36.1332C35.2856 36.1985 35.4691 36.2149 35.626 36.1822L38.1394 36.1427C38.3881 36.1427 38.5813 36.102 38.7188 36.02C38.8562 35.9387 38.938 35.8481 38.9642 35.7501C38.9902 35.652 38.9919 35.5412 38.9692 35.4165C38.9462 35.2923 38.9232 35.2055 38.9005 35.1566C38.8775 35.1076 38.8562 35.0664 38.8365 35.0339C38.5092 34.4448 37.8841 33.7214 36.9612 32.864L36.9415 32.8445L36.9318 32.8345L36.922 32.825H36.9122C36.4931 32.4256 36.2282 32.1572 36.1169 32.0196C35.9141 31.7582 35.8681 31.493 35.9795 31.2246C36.0576 31.0211 36.352 30.5923 36.8625 29.9376Z" fill="white"/>
</g>
</g>
</g>
</svg>
