<svg width="41" height="41" viewBox="0 0 41 41" fill="none" xmlns="http://www.w3.org/2000/svg">
<ellipse cx="20.3768" cy="20.0942" rx="20.0942" ry="20.0942" fill="#CBAE86"/>
<circle cx="15.9686" cy="19.9105" r="12" fill="#CBAE86"/>
<circle cx="20.3768" cy="20.0942" r="12.0565" fill="#CBAE86"/>
<path d="M25.8928 19.7301C26.1083 19.4515 26.2794 19.2279 26.4058 19.0592C27.3159 17.8492 27.7104 17.0763 27.5895 16.7393L27.542 16.6603C27.5105 16.6129 27.4288 16.5694 27.2974 16.53C27.1658 16.4906 26.9975 16.4843 26.7924 16.5103L24.5197 16.5264C24.4671 16.5211 24.4145 16.5223 24.3618 16.53C24.3092 16.538 24.2751 16.546 24.2592 16.5537C24.2433 16.5617 24.2303 16.5682 24.2198 16.5734L24.1883 16.5971C24.162 16.6128 24.1331 16.6405 24.1016 16.68C24.07 16.7196 24.0435 16.7654 24.0226 16.8182C23.7753 17.4547 23.4939 18.0467 23.1782 18.5938C22.9835 18.92 22.8046 19.203 22.6417 19.4421C22.4786 19.6817 22.3418 19.8578 22.2313 19.9707C22.1209 20.0838 22.0208 20.1748 21.9315 20.2429C21.8419 20.3116 21.7736 20.3403 21.7264 20.3299C21.6789 20.3194 21.6342 20.309 21.5922 20.2982C21.5185 20.251 21.4592 20.1866 21.4146 20.1049C21.3699 20.0236 21.3397 19.9209 21.3238 19.7972C21.3082 19.6737 21.2988 19.567 21.2963 19.4775C21.2935 19.3881 21.2949 19.2619 21.3003 19.0986C21.3056 18.9355 21.3082 18.8252 21.3082 18.7672C21.3082 18.5675 21.3122 18.3504 21.3201 18.1162C21.3279 17.8822 21.3345 17.6966 21.3397 17.5598C21.345 17.4232 21.3476 17.2784 21.3476 17.1258C21.3476 16.9735 21.3383 16.8536 21.3198 16.7667C21.3013 16.68 21.2736 16.5959 21.2371 16.5142C21.2001 16.4328 21.1463 16.3695 21.0752 16.3249C21.0041 16.2802 20.9161 16.2448 20.8109 16.2183C20.5319 16.155 20.1768 16.1212 19.7455 16.1157C18.7669 16.1056 18.1382 16.1686 17.8594 16.3052C17.7489 16.3633 17.6489 16.442 17.5595 16.542C17.4648 16.6579 17.4517 16.7212 17.5202 16.7313C17.8359 16.7787 18.0593 16.8919 18.1909 17.0707L18.2383 17.1653C18.275 17.234 18.3118 17.3549 18.3487 17.5285C18.3855 17.702 18.4092 17.894 18.4198 18.1045C18.4461 18.4886 18.4461 18.8172 18.4198 19.091C18.3935 19.3647 18.3686 19.5777 18.3449 19.73C18.3212 19.8826 18.2857 20.0061 18.2384 20.1007C18.191 20.1957 18.1595 20.2536 18.1436 20.2746C18.1278 20.2955 18.1147 20.3088 18.1043 20.314C18.0358 20.3402 17.9649 20.3534 17.8912 20.3534C17.8175 20.3534 17.7281 20.3164 17.6228 20.2427C17.5176 20.1694 17.4083 20.068 17.2954 19.939C17.1821 19.8103 17.0548 19.6299 16.9126 19.3983C16.7706 19.1671 16.6231 18.8934 16.4707 18.5778L16.3445 18.3488C16.2656 18.2018 16.1577 17.9873 16.0209 17.7058C15.8841 17.4244 15.763 17.1523 15.6579 16.889C15.6158 16.7787 15.5527 16.6945 15.4686 16.6365L15.4292 16.6128C15.4029 16.5919 15.3607 16.5694 15.3028 16.5459C15.2448 16.5222 15.1845 16.5051 15.1213 16.4945L12.959 16.5102C12.7381 16.5102 12.5882 16.5603 12.5093 16.6603L12.4778 16.7076C12.4618 16.7341 12.454 16.7762 12.454 16.8339C12.454 16.8919 12.4698 16.9629 12.5014 17.0469C12.8171 17.7888 13.1604 18.5043 13.5312 19.1933C13.9022 19.8826 14.2244 20.4377 14.4979 20.8586C14.7715 21.2797 15.0503 21.6766 15.3345 22.0502C15.6187 22.4238 15.8067 22.663 15.8987 22.7681C15.9907 22.8736 16.063 22.9525 16.1157 23.0049L16.3129 23.1945C16.4391 23.3207 16.6247 23.4719 16.8693 23.6483C17.114 23.8246 17.3848 23.9981 17.6822 24.1689C17.9793 24.34 18.3254 24.4792 18.7198 24.5873C19.1143 24.6953 19.4984 24.7387 19.872 24.7174H20.7795C20.9637 24.7018 21.103 24.6441 21.1977 24.5439L21.2292 24.5045C21.2501 24.4731 21.27 24.4243 21.2884 24.3586C21.3067 24.2929 21.3162 24.2205 21.3162 24.1417C21.3107 23.9156 21.328 23.7113 21.3674 23.5301C21.4068 23.3485 21.4515 23.2119 21.5016 23.1196C21.5516 23.0277 21.608 22.95 21.6713 22.8868C21.7344 22.8235 21.779 22.7857 21.8054 22.7725C21.8318 22.7596 21.8529 22.7503 21.8686 22.7447C21.9947 22.7027 22.1433 22.7435 22.3144 22.8671C22.4854 22.991 22.6459 23.1432 22.7959 23.3248C22.9457 23.5064 23.1259 23.7101 23.3364 23.9364C23.5467 24.1626 23.7309 24.3309 23.8888 24.4414L24.0467 24.5364C24.1519 24.5993 24.2885 24.6571 24.457 24.7099C24.6253 24.7624 24.7728 24.7756 24.8989 24.7493L26.9191 24.7176C27.119 24.7176 27.2743 24.6848 27.3848 24.619C27.4952 24.5536 27.5609 24.4808 27.582 24.402C27.6029 24.3231 27.6043 24.2341 27.586 24.1338C27.5676 24.034 27.5491 23.9643 27.5308 23.9249C27.5124 23.8855 27.4952 23.8524 27.4794 23.8263C27.2163 23.3529 26.7139 22.7714 25.9721 22.0822L25.9563 22.0665L25.9484 22.0585L25.9406 22.0509H25.9327C25.5959 21.7299 25.3829 21.5142 25.2935 21.4035C25.1305 21.1934 25.0935 20.9803 25.1831 20.7646C25.2458 20.601 25.4824 20.2563 25.8928 19.7301Z" fill="#26272B"/>
</svg>
