<svg width="25" height="25" viewBox="0 0 25 25" fill="none" xmlns="http://www.w3.org/2000/svg">
<circle cx="12.5" cy="12.5001" r="12.5" fill="#40C351"/>
<circle cx="13" cy="13.0001" r="8" fill="white"/>
<path d="M13 2.00012C7.47734 2.00012 3 6.47747 3 12.0001C3 17.5228 7.47734 22.0001 13 22.0001C18.5227 22.0001 23 17.5228 23 12.0001C23 6.47747 18.5227 2.00012 13 2.00012ZM13.1309 17.7189H13.1285C12.15 17.7189 11.1887 17.4732 10.3352 17.0075L7.23594 17.8204L8.06562 14.7911C7.55391 13.9048 7.28477 12.899 7.28516 11.8689C7.28633 8.64582 9.90859 6.02356 13.1309 6.02356C14.6945 6.02434 16.1625 6.63293 17.266 7.73801C18.3695 8.8427 18.9773 10.3115 18.9766 11.8736C18.9754 15.0966 16.3527 17.7189 13.1309 17.7189ZM13.1328 7.01067C10.4527 7.01067 8.27305 9.19036 8.27227 11.8693C8.27187 12.7872 8.52852 13.6814 9.01484 14.4548L9.13047 14.6388L8.63984 16.4318L10.4785 15.9493L10.6559 16.0544C11.402 16.4974 12.257 16.7314 13.1289 16.7318H13.1309C15.809 16.7318 17.9887 14.5521 17.9895 11.8732C17.9902 10.5747 17.4852 9.35403 16.568 8.43567C15.6504 7.51731 14.4305 7.01145 13.1328 7.01067ZM15.9906 13.9579C15.8691 14.2993 15.2855 14.6107 15.0047 14.6525C14.7531 14.6904 14.4348 14.706 14.0848 14.5947C13.8727 14.5275 13.6008 14.4376 13.2523 14.2872C11.7871 13.6544 10.8301 12.179 10.757 12.0814C10.684 11.9841 10.1605 11.2896 10.1605 10.5704C10.1605 9.85168 10.5379 9.49817 10.6719 9.35208C10.8059 9.20598 10.9641 9.16926 11.0613 9.16926C11.1586 9.16926 11.2562 9.17004 11.3414 9.17434C11.4309 9.17903 11.5512 9.14036 11.6699 9.42512C11.7914 9.7177 12.0836 10.4365 12.1203 10.5099C12.1566 10.5829 12.1812 10.6681 12.1324 10.7657C12.0836 10.863 12.0594 10.924 11.9863 11.0091C11.9133 11.0947 11.8328 11.1997 11.7672 11.2654C11.6941 11.338 11.618 11.4169 11.7031 11.5634C11.7883 11.7095 12.0816 12.1876 12.5156 12.5751C13.0738 13.0728 13.5441 13.2271 13.6902 13.3001C13.8363 13.3732 13.9215 13.3611 14.0066 13.2634C14.0922 13.1661 14.3719 12.8368 14.4691 12.6907C14.5668 12.5447 14.6641 12.5689 14.798 12.6177C14.9316 12.6665 15.65 13.0197 15.7961 13.0931C15.9422 13.1661 16.0395 13.2025 16.0758 13.2634C16.1125 13.3243 16.1125 13.6169 15.9906 13.9579Z" fill="#40C351"/>
</svg>
