<svg width="61" height="61" viewBox="0 0 61 61" fill="none" xmlns="http://www.w3.org/2000/svg">
<g id="whatsapp">
<ellipse id="Ellipse 29" cx="30.4758" cy="30.7565" rx="30.1413" ry="30.1413" fill="#25CB62"/>
<ellipse id="Ellipse 30" cx="30.8772" cy="33.0071" rx="14.7893" ry="14.7893" fill="white"/>
<path id="Vector" d="M30.8778 12.6719C20.6682 12.6719 12.3911 20.949 12.3911 31.1585C12.3911 41.3681 20.6682 49.6452 30.8778 49.6452C41.0873 49.6452 49.3644 41.3681 49.3644 31.1585C49.3644 20.949 41.0873 12.6719 30.8778 12.6719ZM31.1197 41.7306H31.1154C29.3064 41.7306 27.5292 41.2764 25.9514 40.4156L20.2219 41.9183L21.7558 36.3182C20.8098 34.6797 20.3122 32.8202 20.3129 30.9159C20.3151 24.9576 25.1628 20.1099 31.1197 20.1099C34.0104 20.1113 36.7242 21.2364 38.7642 23.2793C40.8042 25.3215 41.9279 28.0367 41.9264 30.9246C41.9243 36.8829 37.0759 41.7306 31.1197 41.7306ZM31.1233 21.9347C26.1687 21.9347 22.1392 25.9642 22.1378 30.9166C22.137 32.6136 22.6115 34.2666 23.5105 35.6964L23.7243 36.0366L22.8173 39.3512L26.2164 38.4593L26.5442 38.6536C27.9235 39.4725 29.5043 39.905 31.1161 39.9058H31.1197C36.0706 39.9058 40.1002 35.8762 40.1016 30.9238C40.103 28.5235 39.1693 26.2668 37.4738 24.569C35.7775 22.8713 33.5222 21.9361 31.1233 21.9347ZM36.4064 34.7779C36.1819 35.409 35.103 35.9846 34.5838 36.0618C34.1187 36.1319 33.5302 36.1608 32.8831 35.955C32.491 35.8307 31.9884 35.6647 31.3443 35.3866C28.6355 34.2168 26.8663 31.4893 26.7313 31.3087C26.5962 31.1289 25.6286 29.845 25.6286 28.5155C25.6286 27.1868 26.3262 26.5333 26.5738 26.2632C26.8215 25.9931 27.114 25.9252 27.2938 25.9252C27.4736 25.9252 27.6542 25.9267 27.8116 25.9346C27.977 25.9433 28.1994 25.8718 28.4189 26.3982C28.6435 26.9391 29.1836 28.2678 29.2515 28.4036C29.3187 28.5386 29.3642 28.6961 29.2739 28.8766C29.1836 29.0564 29.1389 29.1691 29.0038 29.3265C28.8688 29.4846 28.72 29.6789 28.5987 29.8002C28.4637 29.9345 28.3229 30.0804 28.4803 30.3512C28.6377 30.6213 29.18 31.5052 29.9823 32.2215C31.0143 33.1415 31.8837 33.4268 32.1538 33.5618C32.4239 33.6968 32.5813 33.6744 32.7387 33.4939C32.8969 33.3141 33.4139 32.7053 33.5937 32.4353C33.7743 32.1652 33.9541 32.21 34.2018 32.3002C34.4487 32.3905 35.7767 33.0433 36.0468 33.1791C36.3169 33.3141 36.4967 33.3813 36.5639 33.4939C36.6317 33.6066 36.6317 34.1474 36.4064 34.7779Z" fill="#25CB62"/>
</g>
</svg>
