<svg width="51" height="72" viewBox="0 0 51 72" fill="none" xmlns="http://www.w3.org/2000/svg">
<g id="&#208;&#155;&#208;&#190;&#208;&#179;&#208;&#190;">
<g id="&#208;&#161;&#208;&#187;&#208;&#190;&#208;&#185;_x0020_1">
<g id="_2053681546064">
<path id="Vector" d="M32.9888 32.3711C32.9888 31.1219 32.0859 30.3632 30.9416 30.3632H28.5547V36.735H30.1101V34.3702H30.9416C32.0859 34.3702 32.9888 33.6205 32.9888 32.3711ZM30.1101 33.0048V31.7287H30.7985C31.1919 31.7287 31.4422 31.9964 31.4422 32.3711C31.4422 32.746 31.2455 33.0048 30.7985 33.0048H30.1101ZM38.3513 32.5943H36.9836V32.8977C36.7869 32.7282 36.4382 32.5765 35.7498 32.5765C34.3819 32.5765 33.7026 33.6384 33.7026 34.7003C33.7026 35.7623 34.3819 36.8242 35.7498 36.8242C36.4651 36.8242 36.7778 36.628 36.9836 36.4763V36.735H38.3513V32.5943ZM35.2313 34.6646C35.2313 34.2007 35.6157 33.8169 36.0806 33.8169C36.5454 33.8169 36.9298 34.2007 36.9298 34.6646C36.9298 35.1287 36.5454 35.5124 36.0806 35.5124C35.6157 35.5124 35.2313 35.1287 35.2313 34.6646ZM39.5746 36.735H41.1211V34.6467C41.1211 33.9864 41.6665 33.7276 42.1582 33.7276C42.4354 33.7276 42.5784 33.7722 42.6946 33.8079V32.6388C42.5605 32.5765 42.3997 32.5228 42.1224 32.5228C41.6218 32.5228 41.3 32.737 41.1211 32.9156V32.63H39.5746V36.735ZM45.1606 34.0846V30.1313H43.6051V36.735H45.1606V35.0483L46.8323 36.735H48.7902L46.6089 34.5397L48.4684 32.621H46.6982L45.1606 34.0846Z" fill="white"/>
<path id="Vector_2" d="M5.59693 52.0485C4.71316 47.192 8.8653 43.2919 12.5158 42.5333C13.0992 42.4122 14.052 42.3769 14.0514 42.8532C14.0507 43.3883 13.5696 43.418 12.9794 43.599C9.79875 44.5741 5.47481 47.4343 6.48774 51.0578C7.70383 55.4082 17.6911 51.5137 20.1621 49.5452C24.6273 45.9885 28.1529 41.6549 27.6765 39.1955C27.0857 36.1444 19.6088 37.464 16.052 34.8385C12.5914 32.2842 14.8476 26.7477 17.4586 23.8579C21.267 19.643 26.8388 16.5963 32.0831 15.7237C35.0454 15.2308 36.9023 15.8761 37.3205 17.5974C38.1887 21.1702 32.8862 28.6405 29.7144 29.2841C28.4362 29.5435 27.815 29.1086 27.6204 28.2296C27.2595 26.5988 30.4218 22.9057 31.9304 22.5997C32.2 22.545 32.3529 22.6895 32.3887 22.8646C32.2373 22.9952 27.3299 27.3433 29.1393 27.0913C31.3431 26.7843 37.0596 21.0266 36.3159 18.9553C34.778 14.6726 13.854 24.7206 15.4435 31.1444C16.1773 34.11 23.7824 32.6025 26.9814 35.6662C28.9516 37.553 28.9972 40.3788 27.8334 43.3036C29.3459 41.1875 32.357 37.0127 32.7437 37.0127C33.0041 37.0127 33.1513 37.2146 33.185 37.6178C33.198 37.7739 32.8239 38.4871 32.2283 39.788C32.6157 39.1569 33.1569 38.5645 33.7896 38.4463C34.3506 38.3416 35.0464 38.5352 35.085 39.5843C35.1719 41.9336 33.3864 44.4548 31.5283 45.7931C34.4013 46.8415 36.8811 39.4166 39.9839 38.3535C40.5759 38.1508 41.0323 38.4003 41.2038 39.399C41.4521 39.041 41.7201 38.9395 41.8251 38.9395C42.0602 38.9395 42.1902 39.0657 42.2115 39.3228C42.2834 40.1858 39.1662 44.9004 39.2175 45.5175C39.2611 46.0405 39.7861 45.608 39.8224 46.0472C39.839 46.2486 39.7224 46.3842 39.2351 46.3589C38.0159 46.2958 38.8026 44.2645 39.0247 43.6453C38.4485 44.4078 37.4892 46.1097 36.6452 46.1007C35.4295 46.0878 35.811 44.0869 35.9623 43.3266C35.081 44.4625 32.7783 47.3796 31.1278 46.0537C29.9505 46.6669 29.808 45.1457 29.7675 44.2918L24.9137 53.1187C24.7958 53.3331 24.6842 53.4414 24.5721 53.4414C24.3588 53.4414 24.2334 53.1992 24.1934 52.7202C24.1537 52.2466 24.7289 50.8961 26.0139 48.6193L27.9341 45.2169L31.2324 39.4634C30.2119 40.8664 28.0947 43.983 26.3249 46.2707C23.9127 49.5753 21.1311 52.0581 18.1873 53.6338C12.3125 56.7784 6.38266 56.3664 5.59693 52.0485ZM30.7162 45.2938C30.6472 45.0433 30.4357 43.524 30.2755 43.524C30.0014 43.524 29.8624 45.9534 30.7162 45.2938ZM40.6356 38.949C39.6056 38.8525 35.6959 45.2987 36.9321 45.2334C37.8718 45.1838 41.9213 39.0696 40.6356 38.949ZM30.997 45.1684C31.7272 44.543 34.5303 39.3711 33.5764 39.1066C32.7947 39.0523 30.9582 42.2193 30.4887 43.0792C30.8008 43.0341 30.7524 44.7867 30.997 45.1684Z" fill="white"/>
</g>
</g>
</g>
</svg>
