<svg width="76" height="71" viewBox="0 0 76 71" fill="none" xmlns="http://www.w3.org/2000/svg">
<path d="M48.0734 30.224C48.0734 28.0494 46.5016 26.7287 44.5097 26.7287H40.3547V37.8203H43.0624V33.7038H44.5097C46.5016 33.7038 48.0734 32.3989 48.0734 30.224ZM43.0624 31.327V29.1056H44.2606C44.9455 29.1056 45.3812 29.5717 45.3812 30.224C45.3812 30.8766 45.0388 31.327 44.2606 31.327H43.0624ZM57.4082 30.6125H55.0273V31.1407C54.6849 30.8456 54.0779 30.5815 52.8796 30.5815C50.4985 30.5815 49.3159 32.4299 49.3159 34.2784C49.3159 36.1271 50.4985 37.9756 52.8796 37.9756C54.1247 37.9756 54.6692 37.634 55.0273 37.37V37.8203H57.4082V30.6125ZM51.977 34.2163C51.977 33.4087 52.6462 32.7407 53.4555 32.7407C54.2645 32.7407 54.9337 33.4087 54.9337 34.2163C54.9337 35.0241 54.2645 35.6921 53.4555 35.6921C52.6462 35.6921 51.977 35.0241 51.977 34.2163ZM59.5376 37.8203H62.2298V34.1852C62.2298 33.0358 63.1792 32.5852 64.035 32.5852C64.5176 32.5852 64.7664 32.6629 64.9687 32.725V30.69C64.7353 30.5815 64.4554 30.488 63.9728 30.488C63.1013 30.488 62.5411 30.8609 62.2298 31.1717V30.6746H59.5376V37.8203ZM69.2615 33.2068V26.3251H66.5537V37.8203H69.2615V34.8843L72.1715 37.8203H75.5796L71.7825 33.9989L75.0194 30.659H71.938L69.2615 33.2068Z" fill="white"/>
<path d="M0.39104 64.4776C-1.14738 56.0238 6.08045 49.2347 12.4351 47.9141C13.4507 47.7033 15.1093 47.6418 15.1081 48.471C15.107 49.4025 14.2694 49.4541 13.2421 49.7692C7.70537 51.4666 0.178459 56.4454 1.94172 62.7531C4.05863 70.3261 21.4439 63.5467 25.7453 60.1202C33.5182 53.9287 39.6553 46.385 38.8261 42.1038C37.7976 36.7926 24.7822 39.0897 18.5908 34.5194C12.5666 30.073 16.4942 20.4353 21.0392 15.405C27.6687 8.06779 37.3678 2.76424 46.4968 1.24537C51.6534 0.38735 54.8858 1.51058 55.6138 4.50703C57.1251 10.7264 47.8948 23.7303 42.3735 24.8507C40.1485 25.3022 39.0672 24.545 38.7285 23.015C38.1001 20.1761 43.6048 13.7473 46.2311 13.2147C46.7002 13.1195 46.9665 13.371 47.0287 13.6758C46.7653 13.9031 38.2228 21.4722 41.3724 21.0335C45.2086 20.4991 55.1597 10.4763 53.865 6.87078C51.188 -0.584289 14.7645 16.9067 17.5315 28.089C18.8088 33.2512 32.0474 30.6271 37.6161 35.9602C41.0456 39.2447 41.125 44.1637 39.0991 49.255C41.732 45.5714 46.9736 38.3041 47.6468 38.3041C48.1 38.3041 48.3563 38.6556 48.415 39.3575C48.4376 39.6292 47.7864 40.8707 46.7496 43.1353C47.4239 42.0366 48.366 41.0054 49.4675 40.7997C50.444 40.6174 51.6551 40.9544 51.7225 42.7806C51.8737 46.8701 48.7655 51.259 45.5311 53.5886C50.5322 55.4136 54.849 42.4887 60.2502 40.6382C61.2806 40.2853 62.0751 40.7197 62.3736 42.4582C62.8059 41.8349 63.2725 41.6583 63.4552 41.6583C63.8644 41.6583 64.0907 41.8779 64.1278 42.3254C64.253 43.8278 58.8268 52.0347 58.916 53.1088C58.992 54.0193 59.9057 53.2664 59.9691 54.0309C59.9979 54.3816 59.795 54.6175 58.9466 54.5736C56.8243 54.4637 58.1938 50.9277 58.5805 49.8498C57.5774 51.1772 55.9074 54.1398 54.4383 54.1241C52.322 54.1016 52.9861 50.6186 53.2495 49.2951C51.7153 51.2724 47.707 56.3503 44.8339 54.0423C42.7844 55.1097 42.5364 52.4616 42.4659 50.9753L34.0167 66.3406C33.8115 66.7138 33.6172 66.9024 33.422 66.9024C33.0508 66.9024 32.8324 66.4808 32.7628 65.647C32.6937 64.8226 33.6951 62.4717 35.9318 58.5084L39.2744 52.5856L45.016 42.5701C43.2396 45.0125 39.554 50.4377 36.4732 54.4201C32.2743 60.1726 27.4321 64.4945 22.3077 67.2374C12.0812 72.7113 1.75881 71.994 0.39104 64.4776ZM44.1174 52.7195C43.9972 52.2833 43.6291 49.6387 43.3503 49.6387C42.8731 49.6387 42.6312 53.8677 44.1174 52.7195ZM61.3845 41.6748C59.5916 41.5067 52.7858 52.728 54.9377 52.6143C56.5734 52.528 63.6227 41.8848 61.3845 41.6748ZM44.6062 52.5012C45.8773 51.4125 50.7568 42.4095 49.0962 41.9491C47.7356 41.8546 44.5386 47.3675 43.7213 48.8644C44.2646 48.7858 44.1804 51.8367 44.6062 52.5012Z" fill="#CBAE86"/>
</svg>
