<svg width="166" height="234" viewBox="0 0 166 234" fill="none" xmlns="http://www.w3.org/2000/svg">
<g id="&#208;&#155;&#208;&#190;&#208;&#179;&#208;&#190; 2">
<g id="&#208;&#161;&#208;&#187;&#208;&#190;&#208;&#185;_x0020_1">
<g id="_2053681546064">
<path id="Vector" d="M95.8359 101.837C95.8359 97.596 92.7662 95.0207 88.8762 95.0207H80.7617V116.649H86.0495V108.622H88.8762C92.7662 108.622 95.8359 106.078 95.8359 101.837ZM86.0495 103.987V99.6557H88.3897C89.7272 99.6557 90.5782 100.564 90.5782 101.837C90.5782 103.109 89.9094 103.987 88.3897 103.987H86.0495ZM114.066 102.594H109.416V103.624C108.748 103.049 107.562 102.534 105.222 102.534C100.572 102.534 98.2624 106.138 98.2624 109.743C98.2624 113.348 100.572 116.952 105.222 116.952C107.654 116.952 108.717 116.286 109.416 115.771V116.649H114.066V102.594ZM103.459 109.622C103.459 108.047 104.766 106.744 106.347 106.744C107.927 106.744 109.234 108.047 109.234 109.622C109.234 111.197 107.927 112.499 106.347 112.499C104.766 112.499 103.459 111.197 103.459 109.622ZM118.225 116.649H123.482V109.561C123.482 107.32 125.337 106.441 127.008 106.441C127.95 106.441 128.436 106.592 128.831 106.714V102.745C128.376 102.534 127.829 102.351 126.886 102.351C125.184 102.351 124.09 103.079 123.482 103.685V102.715H118.225V116.649ZM137.215 107.653V94.2336H131.927V116.649H137.215V110.924L142.898 116.649H149.554L142.138 109.198L148.46 102.685H142.442L137.215 107.653Z" fill="white"/>
<path id="Vector_2" d="M2.71582 168.631C-0.288617 152.146 13.8269 138.908 26.2371 136.332C28.2205 135.921 31.4597 135.801 31.4575 137.418C31.4552 139.235 29.8195 139.335 27.8132 139.95C17.0003 143.26 2.30067 152.968 5.74422 165.268C9.87841 180.036 43.8308 166.816 52.2312 160.134C67.4111 148.061 79.3967 133.351 77.7771 125.002C75.7685 114.645 50.3502 119.125 38.2588 110.213C26.494 101.542 34.1643 82.7487 43.0405 72.9395C55.9874 58.632 74.9293 48.2901 92.7576 45.3283C102.828 43.6552 109.141 45.8455 110.563 51.6885C113.514 63.8163 95.4878 89.1739 84.705 91.3586C80.3597 92.2391 78.248 90.7626 77.5866 87.7791C76.3593 82.2432 87.1098 69.7072 92.2387 68.6684C93.155 68.4829 93.675 68.9733 93.7965 69.5677C93.282 70.011 76.5989 84.7706 82.75 83.9152C90.2419 82.8731 109.676 63.3286 107.147 56.2979C101.919 41.7605 30.7864 75.868 36.1901 97.6733C38.6846 107.74 64.5388 102.623 75.4141 113.022C82.1119 119.427 82.2668 129.019 78.3105 138.947C83.4522 131.764 93.6889 117.593 95.0036 117.593C95.8886 117.593 96.3891 118.278 96.5038 119.647C96.5479 120.177 95.2761 122.598 93.2514 127.014C94.5683 124.871 96.408 122.86 98.5592 122.459C100.466 122.104 102.832 122.761 102.963 126.322C103.258 134.297 97.1882 142.855 90.8717 147.398C100.638 150.956 109.069 125.753 119.617 122.144C121.63 121.456 123.181 122.303 123.764 125.693C124.608 124.478 125.52 124.134 125.876 124.134C126.676 124.134 127.117 124.562 127.19 125.434C127.435 128.364 116.837 144.367 117.012 146.462C117.16 148.237 118.945 146.769 119.068 148.26C119.124 148.944 118.728 149.404 117.071 149.318C112.927 149.104 115.601 142.209 116.356 140.107C114.397 142.695 111.136 148.472 108.267 148.442C104.134 148.398 105.431 141.606 105.945 139.025C102.949 142.881 95.1211 152.783 89.5102 148.282C85.5076 150.364 85.0233 145.2 84.8856 142.302L68.3848 172.264C67.9841 172.992 67.6045 173.359 67.2233 173.359C66.4983 173.359 66.0719 172.537 65.936 170.912C65.8011 169.304 67.7567 164.72 72.1249 156.991L78.6527 145.442L89.8657 125.912C86.3965 130.674 79.1988 141.253 73.1821 149.019C64.9819 160.236 55.5254 168.664 45.5178 174.013C25.546 184.687 5.387 183.288 2.71582 168.631ZM88.1108 145.703C87.8761 144.852 87.1572 139.695 86.6127 139.695C85.6809 139.695 85.2083 147.942 88.1108 145.703ZM121.833 124.166C118.331 123.838 105.04 145.719 109.242 145.498C112.437 145.329 126.203 124.575 121.833 124.166ZM89.0655 145.277C91.5477 143.154 101.077 125.598 97.8341 124.701C95.1769 124.516 88.9334 135.266 87.3372 138.185C88.3984 138.032 88.234 143.981 89.0655 145.277Z" fill="#CBAE86"/>
</g>
</g>
</g>
</svg>
